<svg width="214" height="59" viewBox="0 0 214 59" fill="none" xmlns="http://www.w3.org/2000/svg">
<path d="M32.4741 51.8913V46.9902H35.6916C36.2528 46.9902 36.5147 46.9154 36.6269 46.878C36.6643 46.8031 36.6643 46.6535 36.6643 46.429V25.5902C36.6643 25.3283 36.6269 25.1787 36.6269 25.1038C36.5147 25.0664 36.2528 24.9916 35.6916 24.9916H32.4741V20.0906H50.2077C54.2108 20.0906 57.1664 20.764 59.3364 22.1108C61.6559 23.5699 62.8531 25.7773 62.8531 28.5458C62.8531 30.4913 62.1049 33.2224 58.4759 35.0182C58.4011 35.0556 58.3636 35.093 58.2888 35.1304C58.7752 35.3175 59.2241 35.5045 59.6357 35.729C60.7206 36.2902 61.5811 37.001 62.292 37.7867L67.3052 29.1444L50.4696 0H16.8357L0 29.1444L16.8357 58.2888H50.507L54.3231 51.6668C53.5374 51.7416 52.6769 51.779 51.779 51.779H32.4741V51.8913Z" fill="#FFC20F"/>
<path d="M49.6464 38.1982H46.5786V45.6808C46.5786 46.5038 46.7283 46.7657 46.7283 46.8031C46.7283 46.8031 47.0276 46.9528 47.8132 46.9528H48.7485C50.4695 46.9528 51.779 46.5787 52.5646 45.8678C53.3503 45.157 53.7244 44.1094 53.7244 42.5755C53.7244 41.0416 53.3877 39.9192 52.7143 39.2084C52.1157 38.5724 51.0681 38.1982 49.6464 38.1982Z" fill="#FFC20F"/>
<path d="M51.8164 32.1374C52.602 31.3892 52.9762 30.3042 52.9762 28.8451C52.9762 27.4234 52.6769 26.4507 52.0409 25.9269C51.5545 25.5154 50.5069 25.0664 48.2248 25.0664H48.0751C47.065 25.0664 46.7657 25.2535 46.7657 25.2909C46.7657 25.2909 46.5786 25.5528 46.5786 26.5629V33.2972H48.2248C49.8335 33.2598 50.9933 32.8857 51.8164 32.1374Z" fill="#FFC20F"/>
<path d="M174.679 20.3898L170.975 26.8248H163.53L159.789 20.3898L163.53 13.9549H170.975L174.679 20.3898Z" fill="url(#paint0_linear)"/>
<path d="M77.182 43.1741C77.182 44.2216 77.4439 45.0447 77.9677 45.6807C78.4915 46.2793 79.1649 46.616 80.0628 46.616C81.26 46.616 82.1953 46.1297 82.9061 45.1944C83.617 44.2216 84.0659 42.8748 84.1782 41.1164V35.0181C84.1782 34.3821 84.0659 33.9332 83.804 33.7087C83.5422 33.4842 83.0558 33.372 82.3824 33.372H80.9607V31.4639L85.5624 31.2395L90.1642 31.015V45.4937C90.1642 46.1297 90.2764 46.5786 90.5383 46.8031C90.8002 47.0276 91.2866 47.1398 91.96 47.1398H93.3817V49.0478L88.8547 49.2723L84.3278 49.4968V46.0174C84.0285 46.6534 83.617 47.2146 83.168 47.7384C81.7838 49.2723 79.9505 50.0206 77.631 50.0206C75.5359 50.0206 73.9271 49.4594 72.8422 48.337C71.7572 47.2146 71.196 45.5685 71.196 43.3985V34.9807C71.196 34.3447 71.0838 33.8958 70.8219 33.6713C70.56 33.4468 70.0736 33.3346 69.4002 33.3346H67.9785V31.4265L72.5803 31.202L77.182 30.9776V43.1741Z" fill="#231F20"/>
<path d="M109.993 37.0758C109.095 35.4671 108.16 34.3073 107.187 33.5965C106.214 32.8482 105.092 32.4741 103.857 32.4741C102.772 32.4741 101.949 32.6986 101.351 33.1101C100.752 33.5216 100.453 34.1577 100.453 34.9433C100.453 35.5045 100.79 35.916 101.5 36.2528C102.211 36.5895 103.521 36.9636 105.504 37.3751C107.973 37.8989 109.806 38.6098 110.891 39.6199C112.013 40.5926 112.574 41.9021 112.574 43.5482C112.574 45.5311 111.864 47.1398 110.405 48.2996C108.983 49.4594 107 50.058 104.568 50.058C102.361 50.058 100.602 49.6091 99.2182 48.6737L97.6095 49.4594H96.0755L95.8511 42.8374H97.6843C98.3203 44.4835 99.2556 45.7556 100.528 46.7283C101.8 47.701 103.184 48.1874 104.718 48.1874C105.803 48.1874 106.626 47.9629 107.224 47.5139C107.823 47.065 108.122 46.429 108.122 45.6059C108.122 44.9699 107.748 44.4835 107.037 44.1094C106.289 43.7353 104.905 43.3237 102.81 42.9122C100.49 42.4258 98.8067 41.715 97.7965 40.7423C96.749 39.7695 96.2252 38.4227 96.2252 36.7391C96.2252 34.8311 96.8986 33.3346 98.2829 32.2496C99.6672 31.1646 101.5 30.566 103.857 30.566C105.616 30.566 107.187 31.015 108.534 31.9503L110.105 30.9776H111.602L111.789 37.0758H109.993Z" fill="#231F20"/>
<path d="M132.964 36.9262L126.043 51.7416C124.92 53.7245 123.761 55.1836 122.601 56.1189C121.441 57.0168 120.169 57.5031 118.785 57.5031C117.438 57.5031 116.353 57.1664 115.455 56.4556C114.595 55.7822 114.146 54.8843 114.146 53.7993C114.146 52.864 114.445 52.0783 115.006 51.4797C115.567 50.8811 116.315 50.5818 117.213 50.5818C118.111 50.5818 118.86 50.8063 119.421 51.2926C119.982 51.779 120.281 52.3776 120.281 53.0884C120.281 53.6122 120.169 54.0612 119.945 54.4727C119.87 54.5849 119.87 54.6972 119.907 54.772C119.945 54.8468 120.019 54.8842 120.132 54.8842C120.768 54.8468 121.366 54.5475 121.927 54.0238C122.526 53.4252 123.274 52.415 124.135 50.9185L124.509 50.2451L116.091 33.9706C115.904 33.5965 115.642 33.3346 115.343 33.1849C115.043 33.0353 114.595 32.9605 113.958 32.9605V31.0524H119.496H125.033V32.9605H124.471C123.723 32.9605 123.274 33.1101 123.05 33.4468C122.825 33.7461 122.863 34.2325 123.199 34.8311L127.539 43.6231L130.495 37.2255C131.168 35.8038 131.355 34.7563 131.093 34.0829C130.832 33.4094 130.083 33.0353 128.849 32.9979H128.213V31.0898H132.553H136.93V32.9979C135.995 33.1101 135.284 33.4468 134.797 33.9332C134.274 34.3447 133.675 35.3549 132.964 36.9262Z" fill="#231F20"/>
<path d="M139.624 21.3251L146.395 20.9884V34.7189C147.331 33.4842 148.341 32.5863 149.426 31.9877C150.511 31.3891 151.633 31.0898 152.868 31.0898C154.028 31.0898 155.038 31.3517 155.936 31.9129C156.646 32.3619 157.245 33.1101 157.769 34.1951C158.255 35.28 158.517 36.5521 158.517 38.0112V46.4664C158.517 47.0276 158.667 47.4017 158.929 47.6636C159.19 47.9255 159.639 48.0377 160.238 48.0377H161.772V49.4594H152.157V48.0377H153.204C154.028 48.0377 154.589 47.9255 154.888 47.6636C155.187 47.4017 155.337 47.0276 155.337 46.5038V38.0486C155.337 36.5521 154.963 35.3923 154.252 34.5692C153.541 33.7461 152.606 33.3346 151.483 33.3346C150.623 33.3346 149.8 33.5591 149.052 34.0454C148.303 34.5318 147.667 35.2426 147.144 36.1779C146.62 37.1507 146.358 38.1608 146.358 39.2084V46.3168C146.358 46.9528 146.508 47.4017 146.769 47.6636C147.031 47.9255 147.48 48.0751 148.079 48.0751H149.613V49.4968H140.185V48.0751H141.232C141.943 48.0751 142.467 47.9255 142.766 47.6636C143.066 47.3643 143.215 46.9528 143.215 46.3542V25.0664C143.215 24.3182 143.028 23.7196 142.617 23.3454C142.205 22.9713 141.644 22.7842 140.858 22.7842H139.549V21.3251H139.624Z" fill="#FFC20F"/>
<path d="M170.976 47.6636C170.788 47.4765 170.676 47.1772 170.676 46.7657V31.4265L163.568 31.651V33.0727H165.027C165.813 33.0727 166.411 33.2598 166.823 33.6339C167.234 34.008 167.421 34.5318 167.421 35.2426V46.4664C167.421 46.9902 167.309 47.4017 167.047 47.6636C166.785 47.9255 166.374 48.0751 165.813 48.0751H163.942V49.4968H174.081V48.0751H172.061C171.612 48.0377 171.275 47.9255 170.976 47.6636Z" fill="#FFC20F"/>
<path d="M175.39 31.651H184.182V32.9605C183.022 32.9979 182.274 33.0727 181.937 33.2598C181.601 33.4468 181.451 33.7087 181.451 34.0454C181.451 34.3073 181.526 34.6066 181.638 34.8685L186.352 45.3814L190.655 35.1678C190.729 34.9807 190.767 34.8311 190.767 34.644C190.767 33.7087 189.869 33.1475 188.036 32.9231V31.6136H195.406V32.9231C194.658 32.9979 194.059 33.1849 193.61 33.5217C193.161 33.8584 192.825 34.3073 192.6 34.8685L186.053 49.9832H185.005L177.972 34.4196C177.71 33.8584 177.411 33.4842 177.036 33.2598C176.662 33.0353 176.101 32.9231 175.315 32.9231V31.651H175.39Z" fill="#FFC20F"/>
<path d="M213.85 40.6674H201.093C201.167 43.3986 201.654 45.3066 202.626 46.429C203.711 47.701 205.096 48.2996 206.779 48.2996C209.249 48.2996 211.269 46.8779 212.765 44.072L214 44.5958C212.129 48.1874 209.473 49.9832 205.956 49.9832C203.562 49.9832 201.579 49.1227 199.933 47.4017C198.287 45.6807 197.501 43.4734 197.501 40.7797C197.501 37.8989 198.287 35.5419 199.895 33.7835C201.504 31.9877 203.487 31.1272 205.807 31.1272C207.528 31.1272 209.024 31.5762 210.296 32.4741C211.568 33.372 212.503 34.644 213.139 36.2902C213.588 37.45 213.813 38.909 213.85 40.6674ZM201.093 39.3206H208.837C209.286 39.3206 209.66 39.1709 209.885 38.8716C210.146 38.5723 210.259 38.0486 210.259 37.3003C210.259 35.916 209.81 34.7188 208.949 33.7461C208.089 32.7734 207.041 32.287 205.881 32.287C204.572 32.287 203.45 32.8856 202.514 34.0454C201.579 35.2052 201.13 36.9636 201.093 39.3206Z" fill="#FFC20F"/>
<path d="M21.3629 51.4048C18.4821 52.3402 15.9381 50.8437 15.9381 50.8437L13.3192 52.4898C13.2444 52.5646 13.1321 52.4524 13.1695 52.3402L14.7783 49.2349C14.7035 47.5514 14.9653 46.1671 15.4143 45.0447C16.6489 49.1227 19.7542 50.8062 21.3629 51.4048Z" fill="#231F20"/>
<path d="M25.104 48.4867C24.3932 49.4969 23.6075 50.2077 22.8219 50.6941C17.6589 48.1874 16.4243 44.8951 16.125 43.6979C16.7236 42.7626 17.5093 42.0518 18.2949 41.528C19.4547 45.9801 23.2708 47.8507 25.104 48.4867Z" fill="#231F20"/>
<path d="M27.1992 44.1842C26.8999 45.1195 26.5632 45.9426 26.1891 46.6534C21.7744 44.3713 20.6894 41.715 20.3901 40.443C22.1111 39.8444 23.5702 39.8069 23.5702 39.8069C24.094 43.0244 27.1992 44.1842 27.1992 44.1842Z" fill="#231F20"/>
<path d="M28.097 35.5045C28.097 35.5045 24.2061 35.3175 24.0939 37.8989C24.019 40.4804 25.9645 44.1094 31.0152 43.8475C31.9505 43.8101 33.2225 43.7353 34.0082 43.0993C35.3925 42.0143 33.9334 39.358 33.1103 38.2356C31.9505 36.5895 30.1173 35.5793 28.097 35.5045Z" fill="#231F20"/>
<path d="M27.7978 26.6004C27.7978 26.6004 27.7229 27.4608 28.2841 27.4983C28.8453 27.5357 29.6684 27.1241 29.6684 26.0017C29.6684 25.7773 29.6684 25.5154 29.5187 25.3283C29.2943 24.9916 28.6957 25.3283 28.4338 25.478C28.0596 25.7773 27.8352 26.1514 27.7978 26.6004Z" fill="#231F20"/>
<path d="M32.9606 27.2737C32.9606 27.2737 32.4368 27.9846 32.9232 28.3213C33.4095 28.658 34.3074 28.7328 34.8686 27.7601C34.9809 27.573 35.1305 27.3486 35.0931 27.1241C35.0557 26.7126 34.3823 26.6751 34.083 26.6751C33.634 26.7126 33.2225 26.8996 32.9606 27.2737Z" fill="#231F20"/>
<path d="M28.6209 26.1888C28.4713 27.0867 28.3216 27.9472 28.1346 28.8077C27.9849 29.6682 27.8353 30.5287 27.6856 31.3892C27.5734 32.2497 27.4611 33.1101 27.3863 33.9706C27.3489 34.8311 27.3115 35.6916 27.3489 36.6269C26.9748 35.8039 26.8251 34.8685 26.7503 33.9706C26.7129 33.0727 26.7503 32.1374 26.9 31.2769C27.0496 30.379 27.2367 29.5185 27.536 28.658C27.8353 27.7976 28.172 26.9745 28.6209 26.1888Z" fill="#231F20"/>
<path d="M34.0457 27.2737C33.1478 27.8723 32.2873 28.4709 31.5017 29.1444C30.716 29.8178 29.9678 30.566 29.3692 31.3517C28.7332 32.1748 28.2468 33.0353 27.9101 34.008C27.5734 34.9807 27.4611 36.0283 27.4985 37.0758C27.1618 36.0657 27.087 34.9059 27.3489 33.8209C27.5734 32.736 28.0971 31.7258 28.7706 30.8279C29.444 29.9674 30.2671 29.2192 31.165 28.6206C32.0255 28.0594 32.9982 27.5356 34.0457 27.2737Z" fill="#231F20"/>
<path d="M22.4103 38.9465C22.5974 38.9465 20.8016 34.008 20.6519 33.7087C19.1554 30.7531 16.8358 27.8723 13.5061 26.937C12.1593 26.5629 8.56766 26.1514 7.70717 27.573C6.54738 29.4811 7.52011 32.4367 8.75473 34.0828C11.1117 37.1507 15.4142 38.1608 19.0432 38.6472C20.1656 38.7968 21.2879 38.9091 22.4103 38.9465Z" fill="#231F20"/>
<path d="M37.8994 24.2808C37.5627 24.0937 37.0015 24.0189 36.3281 24.0189H34.4949L33.2603 23.4203L33.2977 23.3081H35.1309C35.8417 23.3081 36.4029 23.3829 36.777 23.57L37.9742 24.1686L37.8994 24.2808Z" fill="url(#paint1_linear)"/>
<path d="M44.5586 34.3822V26.2263C44.5586 26.0392 44.5586 25.8521 44.5586 25.6651V25.5528C44.5586 25.4406 44.596 25.2909 44.596 25.1787V25.0665C44.596 25.0291 44.596 24.9916 44.6334 24.9542L44.7082 24.6549C44.7082 24.6175 44.7457 24.5801 44.7457 24.5427C44.7457 24.5053 44.7831 24.4679 44.7831 24.4305L44.8953 24.393L44.8205 24.3556L44.8953 24.206C44.9701 24.0937 45.045 24.0189 45.1198 23.9441C45.5313 23.5325 46.317 23.3081 47.4394 23.3081H47.589C49.2726 23.3081 50.6194 23.5325 51.5547 24.0189L52.7519 24.6175L52.6771 24.7298C51.7418 24.2434 50.4324 24.0189 48.7488 24.0189H48.5991C47.5142 24.0189 46.7659 24.206 46.3544 24.6175C46.2796 24.6923 46.2047 24.8046 46.1299 24.9168L46.0925 24.9916C46.0177 25.1039 45.9803 25.2161 45.9803 25.3284C45.9429 25.4032 45.9429 25.4406 45.9429 25.478C45.9429 25.5528 45.9054 25.6277 45.9054 25.7025V25.7773C45.868 25.8895 45.868 26.0392 45.868 26.1514C45.868 26.3385 45.8306 26.563 45.8306 26.7874V35.0182L44.5586 34.3822Z" fill="url(#paint2_linear)"/>
<path d="M45.494 47.8133C45.4566 47.7759 45.4192 47.7759 45.3818 47.7385C45.2696 47.6637 45.1947 47.6262 45.1199 47.514C45.0077 47.4018 44.9328 47.2895 44.858 47.1399C44.858 47.1025 44.8206 47.065 44.8206 47.0276L44.858 46.9154L44.7832 46.9528C44.7458 46.878 44.7084 46.7658 44.6709 46.6909C44.6335 46.5413 44.5961 46.3542 44.5587 46.1672L44.5213 45.9427C44.5213 45.7556 44.4839 45.5685 44.4839 45.3815V36.4399H48.9734C50.1332 36.4399 51.1433 36.6269 51.929 37.0385L53.1262 37.6371L53.0514 37.7493C52.8643 37.6371 52.6398 37.5623 52.4154 37.4874C51.7793 37.263 50.9937 37.1507 50.1332 37.1507H45.7933V45.9427C45.7933 46.1671 45.7933 46.3916 45.8307 46.5787L45.7933 46.6909H45.8682C45.9056 46.878 45.9056 47.065 45.943 47.2147C45.9804 47.2895 46.0178 47.4018 46.0178 47.4766L46.0552 47.5888C46.0552 47.6262 46.0926 47.6637 46.0926 47.6637C46.1675 47.7759 46.2423 47.8881 46.3171 48.0004C46.4293 48.1126 46.5416 48.1874 46.6538 48.2623L46.579 48.3745L45.494 47.8133ZM51.0311 40.1437C50.9937 40.1437 50.9563 40.1063 50.9563 40.0689C50.9563 40.0315 50.9937 39.9941 51.0311 39.9941C51.0685 39.9941 51.1059 40.0315 51.1059 40.0689C51.1059 40.1437 51.0685 40.1437 51.0311 40.1437Z" fill="url(#paint3_linear)"/>
<path d="M52.1162 34.9808L52.3407 34.9434C54.3236 34.6441 56.0071 34.1577 57.2791 33.5217C57.5784 33.3721 57.8777 33.2224 58.1396 33.0353C58.177 32.9979 58.2519 32.9605 58.2893 32.9231L58.4015 32.8483C58.5886 32.736 58.7382 32.6238 58.8879 32.4741C58.9627 32.4367 59.0001 32.3619 59.0749 32.3245L59.1498 32.2497C59.262 32.1374 59.4117 31.9878 59.5239 31.8755C59.5987 31.8007 59.6361 31.7259 59.711 31.6511C59.8606 31.464 59.9354 31.3518 60.0477 31.2021C60.1225 31.0899 60.1599 31.0151 60.2347 30.9028C60.3096 30.7532 60.3844 30.6035 60.4592 30.4539C60.4966 30.3416 60.534 30.2294 60.6089 30.1172C60.6463 30.0049 60.6837 29.8927 60.7211 29.7804C60.7585 29.6682 60.7959 29.5186 60.7959 29.3689C60.8333 29.2567 60.8333 29.107 60.8333 28.9574C60.8708 28.7703 60.8708 28.5458 60.8708 28.3214C60.8708 28.0595 60.8708 27.7976 60.8333 27.5731V27.4235C60.7959 27.199 60.7585 27.0119 60.7211 26.8248L60.6837 26.6378C60.6463 26.4133 60.5715 26.1888 60.4966 26.0018L60.534 25.8895L60.4592 25.9269C60.3844 25.7399 60.3096 25.5902 60.2347 25.4032L60.1225 25.2161C60.0477 25.0665 59.9354 24.9168 59.8232 24.7672L59.7484 24.6549C59.5987 24.4679 59.4865 24.3182 59.2994 24.1311L59.1872 24.0189C59.0749 23.9067 58.9253 23.757 58.7757 23.6448L58.626 23.5325C58.4389 23.3829 58.2519 23.2332 58.0274 23.121C57.8029 22.9714 57.5784 22.8591 57.3166 22.7095L57.3914 22.5972V22.6721L57.4288 22.5972L58.626 23.1958C58.8131 23.3081 59.0375 23.4203 59.1872 23.4951L59.2994 23.57C59.5613 23.7196 59.7484 23.8693 59.9354 24.0189L60.0851 24.1311C60.2347 24.2808 60.3844 24.393 60.534 24.5053L60.6463 24.6175C60.7959 24.7672 60.9456 24.9542 61.0952 25.1413L61.1326 25.2161C61.2823 25.4032 61.3571 25.5528 61.4694 25.7399C61.5068 25.8147 61.5442 25.8521 61.5816 25.9269C61.6564 26.114 61.7687 26.2637 61.8061 26.4507L61.8435 26.563C61.9183 26.75 61.9557 26.9371 62.0305 27.1241L62.1054 27.4235C62.1428 27.6105 62.1802 27.7976 62.1802 27.9846C62.1802 28.0595 62.2176 28.3214 62.2176 28.3214C62.2176 28.5458 62.255 28.7329 62.255 28.9574C62.255 29.107 62.255 29.2567 62.255 29.4063C62.255 29.4437 62.255 29.4811 62.255 29.5186V29.5934C62.255 29.743 62.2176 29.8553 62.1802 30.0049V30.0797C62.1802 30.1172 62.1802 30.1546 62.1802 30.192C62.1802 30.2294 62.1428 30.2668 62.1428 30.3042L62.1054 30.379C62.068 30.4913 62.0305 30.6409 61.9931 30.7532L61.9557 30.828C61.9557 30.8654 61.9183 30.9028 61.9183 30.9402C61.9183 30.9776 61.8809 31.0151 61.8809 31.0525L61.8435 31.1273C61.7687 31.2769 61.6938 31.4266 61.619 31.5763L61.5816 31.6511C61.5816 31.6885 61.5442 31.7259 61.5442 31.7633C61.5442 31.8007 61.5068 31.8007 61.5068 31.8381C61.3945 32.0252 61.2823 32.1748 61.1701 32.2871C61.0578 32.3993 61.0204 32.4742 60.9456 32.5864C60.8333 32.736 60.6837 32.8483 60.5715 32.9605L60.4966 33.0353C60.4218 33.1102 60.3844 33.1476 60.3096 33.2224C60.1599 33.3721 59.9729 33.4843 59.7858 33.5965L59.6736 33.6714C59.6361 33.7088 59.5613 33.7462 59.5239 33.7836C59.2246 33.9707 58.9253 34.1203 58.626 34.3074C57.3166 34.9808 55.633 35.4672 53.6127 35.7665H53.5753L52.1162 34.9808Z" fill="url(#paint4_linear)"/>
<path d="M34.4573 50.8811L33.2227 50.2825L33.2601 50.1703H51.1433C54.6975 50.1703 57.466 49.4968 59.2992 48.2248C59.5237 48.0752 59.7108 47.9255 59.8978 47.7385C59.9352 47.701 59.9727 47.6636 60.0101 47.6262L60.0849 47.5514C60.1971 47.4392 60.3468 47.3269 60.459 47.1773C60.5338 47.1024 60.5713 47.0276 60.6461 46.9528C60.7583 46.8406 60.8331 46.6909 60.9454 46.5787C60.9828 46.5038 61.0576 46.429 61.095 46.3542C61.2073 46.1671 61.3195 46.0175 61.3943 45.8304C61.5066 45.5685 61.5814 45.3815 61.6562 45.157C61.731 44.8951 61.8433 44.6332 61.8807 44.3713L61.9929 44.2591H61.9181C61.9929 43.9598 62.0303 43.6231 62.0678 43.2489C62.1052 42.9871 62.1052 42.7626 62.1052 42.5007C62.1052 42.2388 62.1052 41.9769 62.0678 41.6776L62.0303 41.4906C61.9929 41.2287 61.9555 40.9668 61.8807 40.7423L61.8433 40.6675C61.7685 40.4056 61.6936 40.2185 61.6188 39.9941L61.544 39.807C61.4317 39.5451 61.3195 39.3206 61.1699 39.1336C61.0576 38.9465 60.908 38.7594 60.7209 38.535C60.6835 38.4975 60.6461 38.4227 60.5713 38.3853C60.4216 38.2357 60.272 38.0486 60.0849 37.8989L59.9727 37.8241C59.7856 37.6371 59.5611 37.4874 59.2992 37.3378L59.1122 37.2255C58.8877 37.0759 58.6258 36.9262 58.3639 36.7766L58.1769 36.6643L58.2143 36.5147L59.4115 37.1133L59.6359 37.2255C59.7856 37.3003 59.9727 37.4126 60.1223 37.4874C60.1971 37.5248 60.2345 37.5622 60.3094 37.5996L60.6087 37.7867C60.8331 37.9364 61.0576 38.1234 61.2821 38.3105L61.3569 38.3479C61.5814 38.535 61.731 38.722 61.8807 38.8717C61.9181 38.9091 61.9929 38.9839 62.0303 39.0213C62.2174 39.2458 62.3671 39.4329 62.4793 39.6199C62.6289 39.807 62.7412 40.0315 62.8534 40.2933L62.9282 40.443C63.0405 40.6675 63.1153 40.892 63.1527 41.079L63.1901 41.1913C63.265 41.4531 63.3024 41.715 63.3398 41.9395C63.3398 41.9395 63.3772 42.3136 63.3772 42.351C63.3772 42.5381 63.4146 42.7626 63.4146 42.9496C63.4146 43.1741 63.4146 43.3986 63.3772 43.6231V43.7353C63.3398 44.1094 63.3024 44.4836 63.2276 44.7829V44.8577C63.1527 45.1944 63.0779 45.4563 62.9657 45.7182L62.9282 45.8304C62.8534 46.0175 62.7786 46.1671 62.7038 46.3542C62.5915 46.5413 62.5167 46.6909 62.4419 46.8405C62.4419 46.878 62.4045 46.878 62.4045 46.9154C62.3296 47.065 62.2548 47.1399 62.2174 47.2147C62.1426 47.3643 62.0303 47.4766 61.9181 47.5888C61.8433 47.6636 61.8059 47.7385 61.731 47.8133C61.6188 47.9255 61.5066 48.0752 61.3569 48.1874C61.3569 48.1874 61.2073 48.3371 61.1699 48.3745C60.9828 48.5615 60.7583 48.7112 60.5713 48.8608C58.7006 50.1703 55.9321 50.8437 52.3405 50.8437H34.4573V50.8811Z" fill="url(#paint5_linear)"/>
<path d="M36.3278 23.9815C37.0386 23.9815 37.5624 24.0563 37.9365 24.2434L36.7393 23.6448C36.3652 23.4577 35.8414 23.3829 35.1306 23.3829H33.2974L34.4946 23.9815H36.3278Z" fill="url(#paint6_linear)"/>
<path d="M45.831 26.8248C45.831 26.6004 45.831 26.3759 45.8684 26.1888C45.8684 26.0392 45.9058 25.9269 45.9058 25.8147C45.9058 25.7025 45.9432 25.5902 45.9432 25.5154C45.9432 25.4406 45.9806 25.4032 45.9806 25.3657C46.0181 25.2535 46.0555 25.1413 46.0929 25.029C46.0929 24.9916 46.1303 24.9542 46.1303 24.9168C46.2051 24.8046 46.2799 24.6923 46.3548 24.5801C46.7663 24.1685 47.5146 23.9815 48.6369 23.9815H48.7866C50.4701 23.9815 51.7796 24.206 52.7523 24.6923L51.5551 24.0937C50.6198 23.6074 49.2729 23.3829 47.5894 23.3829H47.4397C46.3174 23.3829 45.5691 23.5699 45.1576 23.9815C45.0827 24.0563 45.0079 24.1311 44.9705 24.2434C44.9705 24.2808 44.9331 24.2808 44.9331 24.3182C44.9331 24.3556 44.8957 24.393 44.8957 24.4304C44.8583 24.4678 44.8583 24.5052 44.8209 24.5801C44.7834 24.6549 44.7834 24.6923 44.7834 24.7671C44.7834 24.8046 44.746 24.8794 44.746 24.9168C44.746 24.9542 44.746 24.9542 44.7086 24.9916C44.7086 25.0664 44.7086 25.1413 44.6712 25.2161C44.6338 25.3283 44.6338 25.478 44.6338 25.5902C44.6338 25.6276 44.6338 25.665 44.6338 25.7025C44.6338 25.8895 44.6338 26.0392 44.6338 26.2636V34.3822L45.831 34.9808V26.8248Z" fill="url(#paint7_linear)"/>
<path d="M44.6336 46.0549C44.6336 46.0923 44.6336 46.1297 44.6336 46.1671C44.671 46.3542 44.671 46.5413 44.7084 46.6909C44.7458 46.8031 44.7833 46.9154 44.8207 46.9902C44.8581 47.0276 44.8581 47.1024 44.8955 47.1399C44.9703 47.2895 45.0451 47.4017 45.1574 47.4766C45.2322 47.5514 45.307 47.6262 45.4193 47.6636C45.4567 47.701 45.4941 47.701 45.5315 47.7385L46.7287 48.3371C46.5791 48.2622 46.4668 48.1874 46.3546 48.0752C46.2798 48.0003 46.1675 47.8507 46.0927 47.7385C46.0553 47.701 46.0553 47.6262 46.0179 47.5888C45.9805 47.4766 45.943 47.4017 45.9056 47.2895C45.8682 47.1399 45.8308 46.9528 45.8308 46.7657C45.8308 46.7283 45.8308 46.6909 45.8308 46.6535C45.7934 46.4664 45.7934 46.242 45.7934 46.0175V37.1507H50.2081C51.0686 37.1507 51.8542 37.2629 52.5277 37.4874C52.7521 37.5622 52.9766 37.6371 53.1637 37.7493L51.9665 37.1507C51.1808 36.7392 50.2081 36.5521 49.0109 36.5521H44.5962V45.4189C44.5962 45.6059 44.5962 45.793 44.6336 45.9801C44.6336 45.9801 44.6336 46.0175 44.6336 46.0549Z" fill="url(#paint8_linear)"/>
<path d="M58.6634 23.4577C58.7008 23.4951 58.7756 23.5325 58.813 23.5699C58.9627 23.6822 59.0749 23.7944 59.2246 23.9441C59.262 23.9815 59.2994 24.0189 59.3368 24.0563C59.4864 24.2059 59.6361 24.393 59.7857 24.5801C59.8232 24.6175 59.8232 24.6549 59.8606 24.6923C59.9728 24.842 60.0476 24.9916 60.1599 25.1413C60.1973 25.2161 60.2347 25.2535 60.2721 25.3283C60.3469 25.5154 60.4592 25.665 60.4966 25.8521C60.4966 25.8895 60.534 25.9269 60.534 25.9643C60.6088 26.1888 60.6836 26.4133 60.7211 26.6378C60.7211 26.7126 60.7585 26.75 60.7585 26.8248C60.7959 27.0119 60.8333 27.1989 60.8333 27.386C60.8333 27.4608 60.8333 27.5357 60.8707 27.5731C60.9081 27.835 60.9081 28.0594 60.9081 28.3213C60.9081 28.5458 60.8707 28.7329 60.8707 28.9573C60.8707 29.107 60.8333 29.2192 60.8333 29.3689C60.7959 29.5185 60.7959 29.6308 60.7585 29.7804C60.7211 29.8927 60.6836 30.0049 60.6462 30.1545C60.6088 30.2668 60.5714 30.379 60.4966 30.4913C60.4218 30.6409 60.3469 30.7906 60.2721 30.9402C60.2347 31.0524 60.1599 31.1273 60.085 31.2395C60.0102 31.3892 59.898 31.5014 59.7857 31.651C59.7109 31.7633 59.6361 31.8381 59.5613 31.9129C59.449 32.0252 59.2994 32.1748 59.1871 32.2871C59.1123 32.3619 59.0375 32.4367 58.9252 32.5115C58.7756 32.6612 58.5885 32.7734 58.4389 32.8857C58.3641 32.9605 58.2892 32.9979 58.177 33.0727C57.9151 33.2598 57.6158 33.4094 57.2791 33.5591C55.9697 34.2325 54.2861 34.7189 52.3032 34.9808L53.5004 35.5794C55.4833 35.2801 57.1669 34.8311 58.4763 34.1577C58.7756 34.008 59.0749 33.821 59.3742 33.6713C59.449 33.5965 59.5613 33.5591 59.6361 33.4843C59.8231 33.372 59.9728 33.2224 60.1225 33.1101C60.1973 33.0353 60.3095 32.9605 60.3843 32.8857C60.534 32.7734 60.6462 32.6238 60.7585 32.5115C60.8333 32.4367 60.9081 32.3245 60.9829 32.2496C61.0952 32.1374 61.17 31.9878 61.2822 31.8381C61.3197 31.8007 61.3571 31.7633 61.3571 31.7259C61.3945 31.651 61.4319 31.6136 61.4319 31.5388C61.5067 31.3892 61.5815 31.2395 61.6564 31.0899C61.6938 31.015 61.7312 30.9776 61.7312 30.9402C61.7686 30.8654 61.7686 30.828 61.7686 30.7531C61.806 30.6409 61.8434 30.5287 61.8808 30.379C61.8808 30.3042 61.9183 30.2668 61.9557 30.192C61.9557 30.1171 61.9557 30.0423 61.9931 30.0049C62.0305 29.8552 62.0305 29.743 62.0305 29.5934C62.0305 29.5185 62.0679 29.4437 62.0679 29.4063C62.0679 29.2566 62.0679 29.107 62.0679 28.9573C62.0679 28.7329 62.0679 28.5458 62.0305 28.3213C62.0305 28.2839 62.0305 28.2465 62.0305 28.2091C62.0305 28.1343 62.0305 28.0594 61.9931 27.9846C61.9557 27.7976 61.9557 27.6105 61.9183 27.4608C61.9183 27.386 61.8808 27.3486 61.8808 27.2738C61.8808 27.2364 61.8808 27.199 61.8434 27.1615C61.806 26.9745 61.7312 26.7874 61.6564 26.6003C61.6564 26.5629 61.619 26.5255 61.619 26.4881C61.5441 26.301 61.4693 26.1514 61.3945 25.9643C61.3571 25.8895 61.3197 25.8521 61.2822 25.7773C61.2074 25.6276 61.0952 25.478 60.9829 25.3283C60.9455 25.2909 60.9455 25.2535 60.9081 25.2161C60.7585 25.029 60.6088 24.8794 60.4592 24.6923C60.4218 24.6549 60.3843 24.6175 60.3469 24.5801C60.2347 24.4678 60.085 24.3182 59.9354 24.2059C59.898 24.1685 59.8232 24.1311 59.7857 24.0937C59.5987 23.9441 59.4116 23.7944 59.1871 23.6822C59.1497 23.6448 59.0749 23.6073 59.0375 23.5699C58.8504 23.4577 58.6634 23.3455 58.4763 23.2706L57.2791 22.672C57.541 22.7843 57.7655 22.9339 58.0273 23.0836C58.2518 23.1958 58.4763 23.308 58.6634 23.4577Z" fill="url(#paint9_linear)"/>
<path d="M63.3398 43.7727C63.3398 43.5483 63.3772 43.3238 63.3772 43.0993C63.3772 42.9122 63.3772 42.6878 63.3398 42.5007C63.3398 42.4259 63.3024 42.3511 63.3024 42.2762C63.3024 42.2014 63.3024 42.164 63.265 42.0892C63.2276 41.8647 63.1901 41.6028 63.1153 41.3783V41.3409C63.1153 41.3035 63.0779 41.2661 63.0779 41.2287C63.0031 41.0042 62.9283 40.8171 62.8534 40.6301C62.816 40.5552 62.816 40.5178 62.7786 40.443C62.6664 40.2185 62.5541 39.9941 62.4045 39.7696C62.2548 39.5451 62.1052 39.358 61.9555 39.171C61.9181 39.1336 61.8807 39.0587 61.8059 39.0213C61.6562 38.8717 61.5066 38.6846 61.3195 38.535C61.2821 38.4976 61.2447 38.4601 61.2073 38.4601C60.9828 38.2731 60.7583 38.1234 60.5338 37.9364C60.459 37.899 60.4216 37.8615 60.3468 37.8241C60.272 37.7493 60.1597 37.7119 60.0849 37.6371C59.9352 37.5622 59.7856 37.45 59.5985 37.3752C59.5237 37.3378 59.4489 37.3004 59.3741 37.2629L58.1769 36.6643C58.2517 36.7017 58.3265 36.7392 58.4013 36.7766C58.6632 36.9262 58.9251 37.0759 59.1496 37.2255C59.2244 37.2629 59.2618 37.3004 59.3366 37.3378C59.5611 37.4874 59.7856 37.6745 60.0101 37.8615C60.0475 37.899 60.0849 37.9364 60.1223 37.9364C60.3094 38.086 60.459 38.2357 60.6087 38.4227C60.6461 38.4601 60.7209 38.535 60.7583 38.5724C60.908 38.7594 61.095 38.9839 61.2073 39.171C61.3569 39.3955 61.4692 39.6199 61.5814 39.8444C61.6188 39.9192 61.6188 39.9566 61.6562 40.0315C61.7311 40.2185 61.8059 40.443 61.8807 40.6301C61.8807 40.6675 61.9181 40.7049 61.9181 40.7423C61.9929 41.0042 62.0303 41.2287 62.0678 41.4906C62.0678 41.5654 62.0678 41.6028 62.1052 41.6776C62.1426 41.9395 62.1426 42.2014 62.1426 42.5007C62.1426 42.7626 62.1426 43.0245 62.1052 43.249C62.0678 43.6231 62.0304 43.9598 61.9555 44.2965C61.9555 44.3339 61.9181 44.3713 61.9181 44.4087C61.8433 44.6706 61.7685 44.9325 61.6936 45.1944C61.6188 45.4189 61.544 45.6059 61.4317 45.793C61.4317 45.793 61.4317 45.8304 61.3943 45.8304C61.2821 46.0175 61.2073 46.2045 61.095 46.3916C61.0576 46.4664 60.9828 46.5413 60.9454 46.6161C60.8706 46.7283 60.7583 46.878 60.6461 46.9902C60.5713 47.065 60.5338 47.1399 60.459 47.2147C60.3468 47.3269 60.2345 47.4766 60.0849 47.5888C60.0101 47.6262 59.9727 47.7011 59.8978 47.7385C59.7108 47.8881 59.5237 48.0752 59.2992 48.2248C57.4286 49.5343 54.6975 50.1703 51.1059 50.1703H40.9671H33.2227L34.4199 50.7689H42.1643H52.3031C55.8947 50.7689 58.6258 50.1329 60.4964 48.8234C60.7209 48.6738 60.908 48.5241 61.095 48.3371C61.1699 48.2997 61.2073 48.2248 61.2821 48.1874C61.3943 48.0752 61.544 47.9629 61.6562 47.8133C61.7311 47.7385 61.7685 47.6636 61.8433 47.5888C61.9555 47.4766 62.0304 47.3269 62.1426 47.2147C62.18 47.1399 62.2548 47.065 62.2922 46.9902C62.3297 46.9528 62.3671 46.9154 62.3671 46.8406C62.4419 46.6909 62.5167 46.5787 62.5915 46.429C62.5915 46.429 62.5915 46.3916 62.6289 46.3916C62.7038 46.2045 62.7786 46.0549 62.8534 45.8678C62.8534 45.8304 62.8534 45.793 62.8908 45.7556C62.9657 45.4937 63.0779 45.2318 63.1153 44.9699C63.1153 44.9325 63.1527 44.8951 63.1527 44.8577C63.2276 44.521 63.265 44.1843 63.3024 43.8101C63.3398 43.8101 63.3398 43.8101 63.3398 43.7727Z" fill="url(#paint10_linear)"/>
<path d="M33.1851 50.2825V48.0003H35.0931C35.9536 48.0003 36.5522 47.8507 36.8889 47.5888C37.2256 47.3269 37.3753 46.8405 37.3753 46.1297V25.3283C37.3753 24.6175 37.2256 24.1311 36.8889 23.8692C36.5522 23.6073 35.9536 23.4577 35.0931 23.4577H33.1851V21.1755H49.6092C53.313 21.1755 56.119 21.7741 58.0644 23.0087C60.0099 24.2059 60.9826 26.0017 60.9826 28.3587C60.9826 30.6783 59.748 32.4741 57.3536 33.6713C56.1564 34.2699 54.6225 34.7563 52.8267 35.0556C55.0714 35.3923 56.9795 35.9535 58.476 36.7391C60.9826 38.0486 62.2172 39.994 62.2172 42.5755C62.2172 45.1196 61.2445 47.065 59.3739 48.3745C57.5032 49.6839 54.7347 50.3573 51.1431 50.3573H33.1851V50.2825ZM44.6707 45.4189C44.6707 46.429 44.8578 47.1024 45.1945 47.4391C45.5686 47.8133 46.2421 48.0003 47.2522 48.0003H48.1875C50.2452 48.0003 51.8165 47.514 52.8641 46.5787C53.9116 45.6433 54.4354 44.1842 54.4354 42.3136C54.4354 40.443 53.9865 38.9839 53.0886 38.0486C52.1907 37.1133 50.8438 36.6269 49.048 36.6269H44.7081L44.6707 45.4189ZM47.6263 34.2699C49.5344 34.2699 51.0683 33.7461 52.1158 32.7734C53.1634 31.8007 53.6872 30.379 53.6872 28.5458C53.6872 26.7126 53.2008 25.4031 52.3029 24.6175C51.3676 23.8318 49.7962 23.4577 47.6637 23.4577H47.5141C46.4291 23.4577 45.6809 23.6447 45.2693 24.0563C44.8952 24.4304 44.7081 25.1786 44.7081 26.2636V34.3073H47.6263V34.2699Z" fill="url(#paint11_linear)"/>
<path d="M58.4384 36.7391C60.9077 38.0486 62.1423 39.9566 62.1423 42.5007C62.1423 45.0073 61.207 46.9528 59.3363 48.2248C57.4657 49.5343 54.7346 50.1703 51.143 50.1703H41.0042H33.2598V48.0378H35.093C35.9909 48.0378 36.5895 47.8881 36.9262 47.5888C37.2629 47.3269 37.45 46.8031 37.45 46.0923V25.2909C37.45 24.5426 37.3003 24.0563 36.9262 23.757C36.5895 23.4951 35.9909 23.3454 35.093 23.3454H33.2972V21.2129H41.0416H49.6465C53.3129 21.2129 56.1189 21.8115 58.0643 23.0087C59.9724 24.2059 60.9451 25.9643 60.9451 28.2839C60.9451 30.6035 59.7479 32.3245 57.3535 33.5217C56.044 34.1951 54.3605 34.6815 52.3776 34.9433C54.8094 35.3175 56.8671 35.9161 58.4384 36.7391ZM52.9014 46.6161C53.9489 45.6433 54.5101 44.2217 54.5101 42.3136C54.5101 40.4056 54.0612 38.9839 53.1259 38.0112C52.2279 37.0384 50.8437 36.5521 49.0105 36.5521H44.5958V45.4189C44.5958 46.429 44.7828 47.1398 45.157 47.514C45.5311 47.8881 46.2419 48.0752 47.2521 48.0752H48.1874C50.2825 48.0377 51.8538 47.5514 52.9014 46.6161ZM44.6332 26.2262V34.3447H47.6636C49.6091 34.3447 51.1056 33.821 52.1905 32.8108C53.2381 31.8007 53.7993 30.379 53.7993 28.5458C53.7993 26.6752 53.3129 25.3657 52.3776 24.5801C51.4423 23.7944 49.871 23.3829 47.701 23.3829H47.5514C46.429 23.3829 45.6807 23.5699 45.2692 23.9815C44.8203 24.3556 44.6332 25.1038 44.6332 26.2262Z" fill="url(#paint12_linear)"/>
<path d="M34.4195 49.0479C35.3174 49.0479 35.9908 48.8982 36.4398 48.6363C36.0656 48.7486 35.6167 48.786 35.0929 48.786H33.9331V49.0853H34.4195V49.0479Z" fill="url(#paint13_linear)"/>
<path d="M48.9728 22.223C52.527 22.223 55.2207 22.7842 57.0166 23.944C58.7375 25.029 59.5606 26.5629 59.5606 28.658C59.5606 30.6783 58.5131 32.2122 56.3431 33.2972C56.1935 33.372 56.0438 33.4468 55.8942 33.4842C56.3057 33.3346 56.6798 33.1849 57.054 32.9979C59.2239 31.9129 60.2715 30.4164 60.2715 28.3587C60.2715 26.2636 59.4484 24.7297 57.7274 23.6447C55.9316 22.5223 53.2379 21.9237 49.6837 21.9237H34.0078V22.223H48.9728Z" fill="url(#paint14_linear)"/>
<path d="M58.1019 37.3377C56.6054 36.552 54.6225 35.9909 52.2281 35.6916V34.4944C52.0036 34.5318 51.7792 34.5692 51.5547 34.6066V35.9534C53.9117 36.2527 55.8945 36.8139 57.4285 37.5996C59.6732 38.7968 60.7956 40.4804 60.7956 42.7625C60.7956 45.0821 59.9725 46.7657 58.289 47.9255C57.9522 48.1874 57.5407 48.3744 57.1292 48.5989C57.84 48.337 58.4386 48.0377 58.9998 47.6636C60.6834 46.4664 61.5064 44.7828 61.5064 42.5007C61.469 40.2185 60.3841 38.5349 58.1019 37.3377Z" fill="url(#paint15_linear)"/>
<path d="M38.2356 46.6909L37.8989 47.3643V24.1685L38.2356 24.8419V46.6909Z" fill="url(#paint16_linear)"/>
<defs>
<linearGradient id="paint0_linear" x1="167.711" y1="11.2253" x2="166.68" y2="31.1583" gradientUnits="userSpaceOnUse">
<stop offset="0.0135135" stop-color="#FFC20F"/>
<stop offset="1" stop-color="#F6921E"/>
</linearGradient>
<linearGradient id="paint1_linear" x1="33.7806" y1="23.688" x2="63.8538" y2="24.8596" gradientUnits="userSpaceOnUse">
<stop stop-color="#6D6E70"/>
<stop offset="0.1909" stop-color="#5B5B5D"/>
<stop offset="0.606" stop-color="#373839"/>
<stop offset="0.8271" stop-color="#2A2A2B"/>
<stop offset="0.8385" stop-color="#272728"/>
<stop offset="0.9383" stop-color="#101010"/>
<stop offset="1" stop-color="#070707"/>
</linearGradient>
<linearGradient id="paint2_linear" x1="33.5868" y1="28.6565" x2="63.6599" y2="29.8282" gradientUnits="userSpaceOnUse">
<stop stop-color="#6D6E70"/>
<stop offset="0.1909" stop-color="#5B5B5D"/>
<stop offset="0.606" stop-color="#373839"/>
<stop offset="0.8271" stop-color="#2A2A2B"/>
<stop offset="0.8385" stop-color="#272728"/>
<stop offset="0.9383" stop-color="#101010"/>
<stop offset="1" stop-color="#070707"/>
</linearGradient>
<linearGradient id="paint3_linear" x1="33.0725" y1="41.8597" x2="63.1456" y2="43.0314" gradientUnits="userSpaceOnUse">
<stop stop-color="#6D6E70"/>
<stop offset="0.1909" stop-color="#5B5B5D"/>
<stop offset="0.606" stop-color="#373839"/>
<stop offset="0.8271" stop-color="#2A2A2B"/>
<stop offset="0.8385" stop-color="#272728"/>
<stop offset="0.9383" stop-color="#101010"/>
<stop offset="1" stop-color="#070707"/>
</linearGradient>
<linearGradient id="paint4_linear" x1="33.6019" y1="28.2762" x2="63.675" y2="29.4479" gradientUnits="userSpaceOnUse">
<stop stop-color="#6D6E70"/>
<stop offset="0.1909" stop-color="#5B5B5D"/>
<stop offset="0.606" stop-color="#373839"/>
<stop offset="0.8271" stop-color="#2A2A2B"/>
<stop offset="0.8385" stop-color="#272728"/>
<stop offset="0.9383" stop-color="#101010"/>
<stop offset="1" stop-color="#070707"/>
</linearGradient>
<linearGradient id="paint5_linear" x1="33.0203" y1="43.1977" x2="63.0935" y2="44.3694" gradientUnits="userSpaceOnUse">
<stop stop-color="#6D6E70"/>
<stop offset="0.1909" stop-color="#5B5B5D"/>
<stop offset="0.606" stop-color="#373839"/>
<stop offset="0.8271" stop-color="#2A2A2B"/>
<stop offset="0.8385" stop-color="#272728"/>
<stop offset="0.9383" stop-color="#101010"/>
<stop offset="1" stop-color="#070707"/>
</linearGradient>
<linearGradient id="paint6_linear" x1="35.6088" y1="52.9093" x2="35.6088" y2="21.5699" gradientUnits="userSpaceOnUse">
<stop stop-color="#070707"/>
<stop offset="0.0616834" stop-color="#101010"/>
<stop offset="0.1615" stop-color="#272728"/>
<stop offset="0.1729" stop-color="#2A2A2B"/>
<stop offset="0.394" stop-color="#373839"/>
<stop offset="0.8091" stop-color="#5B5B5D"/>
<stop offset="1" stop-color="#6D6E70"/>
</linearGradient>
<linearGradient id="paint7_linear" x1="48.709" y1="52.9093" x2="48.709" y2="21.5699" gradientUnits="userSpaceOnUse">
<stop stop-color="#36363D"/>
<stop offset="0.1451" stop-color="#39393F"/>
<stop offset="0.2323" stop-color="#414147"/>
<stop offset="0.3043" stop-color="#4F4F55"/>
<stop offset="0.3679" stop-color="#646468"/>
<stop offset="0.426" stop-color="#7E7E81"/>
<stop offset="0.4794" stop-color="#9E9E9F"/>
<stop offset="0.5" stop-color="#ACACAD"/>
<stop offset="0.5022" stop-color="#AAAAAB"/>
<stop offset="0.5494" stop-color="#858587"/>
<stop offset="0.5995" stop-color="#656569"/>
<stop offset="0.6542" stop-color="#4A4A50"/>
<stop offset="0.714" stop-color="#36363C"/>
<stop offset="0.7816" stop-color="#28282E"/>
<stop offset="0.8636" stop-color="#202026"/>
<stop offset="1" stop-color="#1D1D24"/>
</linearGradient>
<linearGradient id="paint8_linear" x1="48.9019" y1="52.9093" x2="48.9019" y2="21.5699" gradientUnits="userSpaceOnUse">
<stop stop-color="#36363D"/>
<stop offset="0.1451" stop-color="#39393F"/>
<stop offset="0.2323" stop-color="#414147"/>
<stop offset="0.3043" stop-color="#4F4F55"/>
<stop offset="0.3679" stop-color="#646468"/>
<stop offset="0.426" stop-color="#7E7E81"/>
<stop offset="0.4794" stop-color="#9E9E9F"/>
<stop offset="0.5" stop-color="#ACACAD"/>
<stop offset="0.5022" stop-color="#AAAAAB"/>
<stop offset="0.5494" stop-color="#858587"/>
<stop offset="0.5995" stop-color="#656569"/>
<stop offset="0.6542" stop-color="#4A4A50"/>
<stop offset="0.714" stop-color="#36363C"/>
<stop offset="0.7816" stop-color="#28282E"/>
<stop offset="0.8636" stop-color="#202026"/>
<stop offset="1" stop-color="#1D1D24"/>
</linearGradient>
<linearGradient id="paint9_linear" x1="57.236" y1="52.9093" x2="57.236" y2="21.5699" gradientUnits="userSpaceOnUse">
<stop stop-color="#36363D"/>
<stop offset="0.1451" stop-color="#39393F"/>
<stop offset="0.2323" stop-color="#414147"/>
<stop offset="0.3043" stop-color="#4F4F55"/>
<stop offset="0.3679" stop-color="#646468"/>
<stop offset="0.426" stop-color="#7E7E81"/>
<stop offset="0.4794" stop-color="#9E9E9F"/>
<stop offset="0.5" stop-color="#ACACAD"/>
<stop offset="0.5022" stop-color="#AAAAAB"/>
<stop offset="0.5494" stop-color="#858587"/>
<stop offset="0.5995" stop-color="#656569"/>
<stop offset="0.6542" stop-color="#4A4A50"/>
<stop offset="0.714" stop-color="#36363C"/>
<stop offset="0.7816" stop-color="#28282E"/>
<stop offset="0.8636" stop-color="#202026"/>
<stop offset="1" stop-color="#1D1D24"/>
</linearGradient>
<linearGradient id="paint10_linear" x1="48.3119" y1="52.9093" x2="48.3119" y2="21.5699" gradientUnits="userSpaceOnUse">
<stop stop-color="#36363D"/>
<stop offset="0.1451" stop-color="#39393F"/>
<stop offset="0.2323" stop-color="#414147"/>
<stop offset="0.3043" stop-color="#4F4F55"/>
<stop offset="0.3679" stop-color="#646468"/>
<stop offset="0.426" stop-color="#7E7E81"/>
<stop offset="0.4794" stop-color="#9E9E9F"/>
<stop offset="0.5" stop-color="#ACACAD"/>
<stop offset="0.5022" stop-color="#AAAAAB"/>
<stop offset="0.5494" stop-color="#858587"/>
<stop offset="0.5995" stop-color="#656569"/>
<stop offset="0.6542" stop-color="#4A4A50"/>
<stop offset="0.714" stop-color="#36363C"/>
<stop offset="0.7816" stop-color="#28282E"/>
<stop offset="0.8636" stop-color="#202026"/>
<stop offset="1" stop-color="#1D1D24"/>
</linearGradient>
<linearGradient id="paint11_linear" x1="47.7121" y1="19.1428" x2="47.7121" y2="50.3187" gradientUnits="userSpaceOnUse">
<stop stop-color="#040404"/>
<stop offset="0.125" stop-color="#0A0A0A"/>
<stop offset="0.25" stop-color="#131313"/>
<stop offset="0.375" stop-color="#1F1F1F"/>
<stop offset="0.5" stop-color="#414141"/>
<stop offset="0.635" stop-color="#1F1F1F"/>
<stop offset="0.75" stop-color="#131313"/>
<stop offset="0.875" stop-color="#0A0A0A"/>
<stop offset="1" stop-color="#040404"/>
</linearGradient>
<linearGradient id="paint12_linear" x1="47.712" y1="22.7725" x2="47.712" y2="52.1315" gradientUnits="userSpaceOnUse">
<stop offset="0.0718085" stop-color="#404041"/>
<stop offset="1" stop-color="#070707"/>
</linearGradient>
<linearGradient id="paint13_linear" x1="35.2036" y1="22.888" x2="35.2036" y2="47.3575" gradientUnits="userSpaceOnUse">
<stop stop-color="#36363D"/>
<stop offset="0.1451" stop-color="#39393F"/>
<stop offset="0.2323" stop-color="#414147"/>
<stop offset="0.3043" stop-color="#4F4F55"/>
<stop offset="0.3679" stop-color="#646468"/>
<stop offset="0.426" stop-color="#7E7E81"/>
<stop offset="0.4794" stop-color="#9E9E9F"/>
<stop offset="0.5" stop-color="#ACACAD"/>
<stop offset="0.5022" stop-color="#AAAAAB"/>
<stop offset="0.5494" stop-color="#858587"/>
<stop offset="0.5995" stop-color="#656569"/>
<stop offset="0.6542" stop-color="#4A4A50"/>
<stop offset="0.714" stop-color="#36363C"/>
<stop offset="0.7816" stop-color="#28282E"/>
<stop offset="0.8636" stop-color="#202026"/>
<stop offset="1" stop-color="#1D1D24"/>
</linearGradient>
<linearGradient id="paint14_linear" x1="47.1063" y1="22.888" x2="47.1063" y2="47.3575" gradientUnits="userSpaceOnUse">
<stop stop-color="#36363D"/>
<stop offset="0.1451" stop-color="#39393F"/>
<stop offset="0.2323" stop-color="#414147"/>
<stop offset="0.3043" stop-color="#4F4F55"/>
<stop offset="0.3679" stop-color="#646468"/>
<stop offset="0.426" stop-color="#7E7E81"/>
<stop offset="0.4794" stop-color="#9E9E9F"/>
<stop offset="0.5" stop-color="#ACACAD"/>
<stop offset="0.5022" stop-color="#AAAAAB"/>
<stop offset="0.5494" stop-color="#858587"/>
<stop offset="0.5995" stop-color="#656569"/>
<stop offset="0.6542" stop-color="#4A4A50"/>
<stop offset="0.714" stop-color="#36363C"/>
<stop offset="0.7816" stop-color="#28282E"/>
<stop offset="0.8636" stop-color="#202026"/>
<stop offset="1" stop-color="#1D1D24"/>
</linearGradient>
<linearGradient id="paint15_linear" x1="56.5131" y1="22.888" x2="56.5131" y2="47.3575" gradientUnits="userSpaceOnUse">
<stop stop-color="#36363D"/>
<stop offset="0.1451" stop-color="#39393F"/>
<stop offset="0.2323" stop-color="#414147"/>
<stop offset="0.3043" stop-color="#4F4F55"/>
<stop offset="0.3679" stop-color="#646468"/>
<stop offset="0.426" stop-color="#7E7E81"/>
<stop offset="0.4794" stop-color="#9E9E9F"/>
<stop offset="0.5" stop-color="#ACACAD"/>
<stop offset="0.5022" stop-color="#AAAAAB"/>
<stop offset="0.5494" stop-color="#858587"/>
<stop offset="0.5995" stop-color="#656569"/>
<stop offset="0.6542" stop-color="#4A4A50"/>
<stop offset="0.714" stop-color="#36363C"/>
<stop offset="0.7816" stop-color="#28282E"/>
<stop offset="0.8636" stop-color="#202026"/>
<stop offset="1" stop-color="#1D1D24"/>
</linearGradient>
<linearGradient id="paint16_linear" x1="38.0579" y1="24.1595" x2="38.0579" y2="47.3684" gradientUnits="userSpaceOnUse">
<stop stop-color="#36363D"/>
<stop offset="0.1451" stop-color="#39393F"/>
<stop offset="0.2323" stop-color="#414147"/>
<stop offset="0.3043" stop-color="#4F4F55"/>
<stop offset="0.3679" stop-color="#646468"/>
<stop offset="0.426" stop-color="#7E7E81"/>
<stop offset="0.4794" stop-color="#9E9E9F"/>
<stop offset="0.5" stop-color="#ACACAD"/>
<stop offset="0.5022" stop-color="#AAAAAB"/>
<stop offset="0.5494" stop-color="#858587"/>
<stop offset="0.5995" stop-color="#656569"/>
<stop offset="0.6542" stop-color="#4A4A50"/>
<stop offset="0.714" stop-color="#36363C"/>
<stop offset="0.7816" stop-color="#28282E"/>
<stop offset="0.8636" stop-color="#202026"/>
<stop offset="1" stop-color="#1D1D24"/>
</linearGradient>
</defs>
</svg>
