<svg width="16" height="16" viewBox="0 0 16 16" fill="none" xmlns="http://www.w3.org/2000/svg">
<path d="M14.4327 3.63917C13.5804 3.63917 12.8653 4.32162 12.8653 5.20652C12.8653 5.83345 13.2343 6.38529 13.7829 6.63345V10.9241C13.7829 13.0008 12.1143 14.6694 10.0375 14.6694C8.11755 14.6694 6.5502 13.2457 6.32163 11.391C9.06449 11.0612 11.1608 8.92243 11.1608 6.29386V3.16243C11.1608 1.8008 10.0702 0.710189 8.70857 0.710189H8.53224C8.48979 0.422842 8.36898 0.00488281 7.85633 0.00488281C7.34041 0.00488281 7.17388 0.462026 7.17388 0.782026V2.03264C7.17388 2.35264 7.34367 2.80978 7.85633 2.80978C8.36571 2.80978 8.49633 2.38529 8.53551 2.06856H8.70857C9.32245 2.06856 9.83184 2.57794 9.83184 3.19182V6.35917C9.83184 8.4359 7.9249 10.1371 5.57714 10.1371C3.22939 10.1371 1.32898 8.43917 1.32898 6.36243V3.22774C1.32898 2.61386 1.83837 2.10447 2.45224 2.10447H2.69714C2.73959 2.39182 2.86694 2.80978 3.37306 2.80978C3.90531 2.80978 4.01959 2.38203 4.05551 2.06203V0.782026C4.05551 0.462026 3.90204 0.00488281 3.37306 0.00488281C2.85714 0.00488281 2.71673 0.442434 2.69388 0.746107H2.45224C1.09061 0.742842 0 1.83345 0 3.19509V6.32652C0 8.95835 2.15837 11.12 4.96 11.4008C5.20163 13.9706 7.37959 15.9951 10.0082 15.9951C12.8 15.9951 15.0792 13.7126 15.1478 10.8881V6.59101C15.6506 6.32652 16 5.79754 16 5.20325C16 4.35101 15.3176 3.63917 14.4327 3.63917ZM14.4327 5.40896C14.2955 5.40896 14.1943 5.30774 14.1943 5.1706C14.1943 5.03345 14.2955 4.93223 14.4327 4.93223C14.5698 4.93223 14.671 5.06937 14.671 5.1706C14.671 5.30447 14.5698 5.40896 14.4327 5.40896Z" fill="#2662F0"/>
</svg>
