<svg width="53" height="53" viewBox="0 0 53 53" fill="none" xmlns="http://www.w3.org/2000/svg">
<path d="M33.3312 33.5396C32.7596 33.5396 32.2961 34.003 32.2961 34.5747C32.2961 37.771 29.6958 40.3715 26.4993 40.3715C23.303 40.3715 20.7025 37.7711 20.7025 34.5747C20.7025 31.3784 23.3028 28.778 26.4993 28.778C27.0709 28.778 27.5345 28.3145 27.5345 27.7428C27.5345 27.1711 27.071 26.7076 26.4993 26.7076C22.1615 26.7076 18.6323 30.2367 18.6323 34.5746C18.6323 38.9125 22.1615 42.4416 26.4993 42.4416C30.8371 42.4416 34.3663 38.9125 34.3663 34.5746C34.3664 34.003 33.9028 33.5396 33.3312 33.5396Z" fill="#B7B9C5"/>
<path d="M26.4989 31.0552C24.5583 31.0552 22.9795 32.634 22.9795 34.5746C22.9795 36.5152 24.5583 38.094 26.4989 38.094C28.4396 38.094 30.0184 36.5152 30.0184 34.5746C30.0184 32.634 28.4396 31.0552 26.4989 31.0552ZM26.4989 36.0238C25.6998 36.0238 25.0497 35.3737 25.0497 34.5746C25.0497 33.7755 25.6998 33.1254 26.4989 33.1254C27.2981 33.1254 27.9481 33.7755 27.9481 34.5746C27.9481 35.3737 27.2981 36.0238 26.4989 36.0238Z" fill="#B7B9C5"/>
<path d="M51.9635 42.0276C51.3919 42.0276 50.9283 42.4911 50.9283 43.0628V46.3752C50.9283 48.8866 48.8853 50.9297 46.3738 50.9297H6.62479C4.1134 50.9297 2.07021 48.8867 2.07021 46.3752V31.0552H14.8061C14.4659 32.1807 14.2847 33.3643 14.2847 34.5746C14.2847 41.3096 19.7642 46.7891 26.4993 46.7891C33.2343 46.7891 38.7138 41.3096 38.7138 34.5746C38.7138 33.3612 38.5347 32.1782 38.1977 31.0552H50.9283V34.0053C50.9283 34.577 51.3919 35.0404 51.9635 35.0404C52.5351 35.0404 52.9986 34.577 52.9986 34.0053V22.7741C52.9986 19.1212 50.0268 16.1493 46.3739 16.1493H39.3984L38.5911 13.0985C38.0343 10.9943 36.1253 9.52454 33.9484 9.52454H20.0677C17.891 9.52454 15.9818 10.9943 15.425 13.0985L14.6178 16.1493H13.3931V15.4935C13.3931 13.8004 12.0156 12.4229 10.3226 12.4229H8.81953C7.12643 12.4229 5.74905 13.8004 5.74905 15.4935V16.2091C2.5088 16.6392 0 19.4184 0 22.7741V46.3751C0.000103516 50.0281 2.97193 53 6.6249 53H46.3739C50.0268 53 52.9986 50.0281 52.9986 46.3752V43.0628C52.9986 42.4911 52.5352 42.0276 51.9635 42.0276ZM17.4263 13.6281C17.7432 12.4308 18.8294 11.5947 20.0677 11.5947H33.9485C35.1869 11.5947 36.273 12.4309 36.5899 13.6281L37.2569 16.1492H16.7593L17.4263 13.6281ZM7.81926 15.4934C7.81926 14.9417 8.268 14.493 8.81953 14.493H10.3227C10.8742 14.493 11.323 14.9417 11.323 15.4934V16.1492H7.81926V15.4934ZM2.07031 22.774C2.07031 20.2627 4.1135 18.2195 6.6249 18.2195H6.78421H12.3581H15.4146H38.6015H46.3739C48.8853 18.2195 50.9284 20.2626 50.9284 22.7741V28.985H37.3637C36.0878 26.5035 33.9722 24.481 31.2928 23.3367C30.7671 23.1124 30.1587 23.3564 29.9342 23.8823C29.7097 24.408 29.9538 25.0163 30.4797 25.2408C34.2242 26.8399 36.6437 30.5036 36.6437 34.5747C36.6437 40.1684 32.0929 44.7189 26.4995 44.7189C20.906 44.7189 16.3552 40.1683 16.3552 34.5747C16.3552 30.6097 18.6872 26.9845 22.2964 25.3391C22.8166 25.102 23.046 24.488 22.8088 23.9678C22.5718 23.4476 21.9576 23.2184 21.4376 23.4553C18.8956 24.6142 16.8811 26.5896 15.6459 28.9849H2.07031V22.774Z" fill="#B7B9C5"/>
<path d="M9.57118 20.4969C7.85883 20.4969 6.46582 21.8901 6.46582 23.6023C6.46582 25.3146 7.85893 26.7077 9.57118 26.7077C11.2835 26.7077 12.6765 25.3146 12.6765 23.6023C12.6765 21.8901 11.2834 20.4969 9.57118 20.4969ZM9.57118 24.6375C9.0004 24.6375 8.53603 24.1731 8.53603 23.6023C8.53603 23.0315 9.0005 22.5672 9.57118 22.5672C10.142 22.5672 10.6063 23.0315 10.6063 23.6023C10.6063 24.1731 10.142 24.6375 9.57118 24.6375Z" fill="#B7B9C5"/>
<path d="M45.0127 22.5671H42.3325C41.7609 22.5671 41.2974 23.0306 41.2974 23.6023C41.2974 24.174 41.7609 24.6375 42.3325 24.6375H45.0127C45.5844 24.6375 46.0479 24.174 46.0479 23.6023C46.0479 23.0306 45.5844 22.5671 45.0127 22.5671Z" fill="#B7B9C5"/>
<path d="M26.4873 0C25.9157 0 25.4521 0.463439 25.4521 1.03516V6.01529C25.4521 6.58701 25.9157 7.05045 26.4873 7.05045C27.0589 7.05045 27.5225 6.58701 27.5225 6.01529V1.03516C27.5224 0.463439 27.0588 0 26.4873 0Z" fill="#B7B9C5"/>
<path d="M36.4105 4.38093C36.0063 3.9767 35.3511 3.9767 34.9465 4.38093L32.9145 6.41294C32.5103 6.81717 32.5103 7.47263 32.9145 7.87686C33.1168 8.07903 33.3817 8.18006 33.6466 8.18006C33.9115 8.18006 34.1764 8.07892 34.3785 7.87686L36.4105 5.84495C36.8148 5.44062 36.8148 4.78516 36.4105 4.38093Z" fill="#B7B9C5"/>
<path d="M20.0975 6.44974L18.0655 4.41773C17.6612 4.01351 17.0059 4.01351 16.6015 4.41773C16.1973 4.82196 16.1973 5.47742 16.6015 5.88165L18.6337 7.91356C18.8359 8.11572 19.1008 8.21676 19.3657 8.21676C19.6306 8.21676 19.8955 8.11562 20.0976 7.91356C20.5018 7.50943 20.5018 6.85397 20.0975 6.44974Z" fill="#B7B9C5"/>
<path d="M27.2314 22.6634C27.0379 22.4709 26.7719 22.3601 26.4997 22.3601C26.2263 22.3601 25.9592 22.4709 25.7668 22.6634C25.5742 22.8559 25.4634 23.123 25.4634 23.3953C25.4634 23.6675 25.5741 23.9346 25.7668 24.1271C25.9604 24.3196 26.2264 24.4304 26.4997 24.4304C26.7719 24.4304 27.0379 24.3197 27.2314 24.1271C27.424 23.9346 27.5337 23.6675 27.5337 23.3953C27.5337 23.123 27.424 22.8559 27.2314 22.6634Z" fill="#B7B9C5"/>
<path d="M52.6947 37.9317C52.5021 37.7391 52.2362 37.6284 51.9629 37.6284C51.6906 37.6284 51.4236 37.7391 51.2311 37.9317C51.0386 38.1242 50.9277 38.3913 50.9277 38.6635C50.9277 38.9358 51.0385 39.2028 51.2311 39.3954C51.4236 39.5879 51.6906 39.6987 51.9629 39.6987C52.2363 39.6987 52.5022 39.5879 52.6947 39.3954C52.8883 39.2028 52.9991 38.9358 52.9991 38.6635C52.9991 38.3913 52.8883 38.1242 52.6947 37.9317Z" fill="#B7B9C5"/>
</svg>
