<svg width="69" height="69" viewBox="0 0 69 69" fill="none" xmlns="http://www.w3.org/2000/svg">
<path d="M2.20728 35.8182L18.7583 7.15099H51.8604L68.4114 35.8182L51.8604 64.4855H18.7583L2.20728 35.8182Z" fill="#F8F8F8"/>
<path d="M35.2293 10.2656L33.9605 8.06798L35.2293 5.87035H37.7669L39.0358 8.06798L37.7669 10.2656H35.2293Z" stroke="#FCC01B" stroke-width="0.754533"/>
<path d="M2.4974 35.4207L1.2286 33.2231L2.4974 31.0255H5.03501L6.30382 33.2231L5.03501 35.4207H2.4974Z" stroke="black" stroke-width="0.754533"/>
<path d="M16.0531 55.5402L15.1807 54.0292L16.0531 52.5182H17.7979L18.6702 54.0292L17.7979 55.5402H16.0531Z" stroke="#FCC01B" stroke-width="0.754533"/>
<path d="M10.1353 3.90547L11.9192 0.815591H15.4871L17.271 3.90547L15.4871 6.99535H11.9192L10.1353 3.90547Z" fill="#F8F8F8"/>
<path d="M58.9326 52.2811L59.6264 51.0794H61.0139L61.7076 52.2811L61.0139 53.4827H59.6264L58.9326 52.2811Z" fill="#FCC01B"/>
<path opacity="0.21" d="M26.5707 49.1417C27.8718 47.1505 31.992 40.8451 27.5563 36.7624C23.1713 32.7264 16.467 38.514 13.8186 37.4938C11.1703 36.4736 7.84508 33.5905 8.03559 30.4C8.2261 27.2096 11.7291 24.7475 14.3325 27.6483C16.3877 29.9385 15.7821 37.7398 12.626 39.319C7.70069 41.7834 3.64766 37.4776 2.37111 36.1699" stroke="#807272" stroke-width="0.754533" stroke-dasharray="1.51 1.51"/>
<path opacity="0.21" d="M42.0824 28.9995C48.0412 29.1021 47.1739 21.7636 49.8309 20.7663C52.488 19.769 56.8887 19.7141 58.8663 22.225C60.8438 24.7359 59.8619 28.9035 55.9888 28.4654C52.9312 28.1196 48.2001 21.887 49.5095 18.6097C51.5527 13.4954 60.2071 15.0571 62.03 15.1862" stroke="#807272" stroke-width="0.754533" stroke-dasharray="1.51 1.51"/>
<path d="M20.7913 13.8192V17.5853" stroke="black" stroke-width="1.19917" stroke-linecap="round"/>
<path d="M18.9082 15.7022H22.6743" stroke="black" stroke-width="1.19917" stroke-linecap="round"/>
<path d="M60.8149 31.9351V35.7012" stroke="black" stroke-width="1.19917" stroke-linecap="round"/>
<path d="M58.9319 33.8181H62.698" stroke="black" stroke-width="1.19917" stroke-linecap="round"/>
<path d="M62.6624 15.1807C62.8201 14.2146 62.1648 13.3035 61.1987 13.1458L61.0321 13.1186C60.158 12.9759 59.3337 13.5688 59.191 14.4429C59.0483 15.317 59.6412 16.1413 60.5153 16.284L62.4313 16.5968L62.6624 15.1807Z" fill="black"/>
<path d="M61.9276 11.2979C62.28 11.716 62.0306 12.458 61.8511 12.8623C61.7849 13.0115 61.5982 13.0434 61.4834 12.9275C61.1962 12.6377 60.7414 12.1131 60.7495 11.7042C60.7604 11.1543 61.4261 10.7029 61.9276 11.2979Z" fill="black"/>
<path d="M64.8347 12.0656C63.9886 11.6858 62.872 12.542 62.3975 12.9617C62.2753 13.0698 62.2962 13.2579 62.4375 13.3395C62.9474 13.6337 64.0629 14.2046 64.7307 13.9993C65.5475 13.7482 65.9378 12.5609 64.8347 12.0656Z" fill="black"/>
<path d="M51.3655 37.9585H20.4095C19.653 37.9585 19.0398 37.3452 19.0398 36.5887V26.7267C19.0398 25.9702 19.653 25.357 20.4095 25.357H51.3655C52.122 25.357 52.7352 25.9702 52.7352 26.7267V36.5888C52.7352 37.3452 52.122 37.9585 51.3655 37.9585Z" fill="#FCC01B" stroke="black" stroke-width="0.890617" stroke-linecap="round"/>
<path d="M49.9956 51.6558H21.7792C21.0227 51.6558 20.4094 51.0426 20.4094 50.2861V37.9585H51.3654V50.286C51.3654 51.0426 50.7521 51.6558 49.9956 51.6558Z" fill="#FCC01B" stroke="black" stroke-width="0.890617" stroke-linecap="round"/>
<path d="M20.814 38.382V39.8451H48.8281C49.1965 39.8451 49.4951 40.123 49.4951 40.4658V49.7764C49.4951 50.462 48.8979 51.0178 48.1611 51.0178H49.6285C50.3653 51.0178 50.9625 50.462 50.9625 49.7764V38.382H20.814Z" fill="#DF8621"/>
<path d="M31.7791 33.0275V30.288C31.7791 29.9098 32.0857 29.6031 32.464 29.6031H39.3126C39.6908 29.6031 39.9975 29.9097 39.9975 30.288V33.0275C39.9975 33.4057 39.6909 33.7123 39.3126 33.7123H32.464C32.0857 33.7123 31.7791 33.4057 31.7791 33.0275Z" fill="white" stroke="black" stroke-width="0.890617" stroke-linecap="round"/>
<path d="M27.4641 37.9387H31.011V40.8205C31.011 41.8 30.217 42.594 29.2376 42.594C28.2581 42.594 27.4641 41.8 27.4641 40.8205V37.9387Z" fill="white" stroke="black" stroke-width="0.890617" stroke-linecap="round"/>
<path d="M40.7644 37.9387H44.3113V40.8205C44.3113 41.8 43.5173 42.594 42.5378 42.594C41.5584 42.594 40.7644 41.8 40.7644 40.8205V37.9387Z" fill="white" stroke="black" stroke-width="0.890617" stroke-linecap="round"/>
<path d="M27.4641 22.6847C27.4641 20.2129 29.4679 18.2091 31.9397 18.2091H39.8363C42.3081 18.2091 44.3118 20.2129 44.3118 22.6847V25.3029H27.4641V22.6847Z" fill="#FCC01B" stroke="black" stroke-width="0.890617" stroke-linecap="round"/>
<path d="M30.5674 22.8584C30.5674 21.7598 31.4579 20.8693 32.5565 20.8693H39.2189C40.3175 20.8693 41.208 21.7598 41.208 22.8584V25.3029H30.5674V22.8584Z" fill="#E5E5E5" stroke="black" stroke-width="0.890617" stroke-linecap="round"/>
<circle cx="50.9619" cy="49.2444" r="5.76369" fill="white" stroke="black" stroke-width="0.890617" stroke-linecap="round"/>
<path d="M51.1165 46.8928V51.3381" stroke="black" stroke-width="0.994566" stroke-linecap="round"/>
<path d="M48.8936 49.1154H53.3389" stroke="black" stroke-width="0.994566" stroke-linecap="round"/>
</svg>
