<svg width="71" height="69" viewBox="0 0 71 69" fill="none" xmlns="http://www.w3.org/2000/svg">
<path d="M4.78442 35.4806L21.3355 6.8134H54.4375L70.9886 35.4806L54.4375 64.1479H21.3355L4.78442 35.4806Z" fill="#F8F8F8"/>
<path d="M37.8067 9.92804L36.5379 7.7304L37.8067 5.53277H40.3443L41.6131 7.7304L40.3443 9.92804H37.8067Z" stroke="#FCC01B" stroke-width="0.754533"/>
<path d="M14.4171 55.6239L13.5448 54.1129L14.4171 52.602H16.1619L17.0343 54.1129L16.1619 55.6239H14.4171Z" stroke="#FCC01B" stroke-width="0.754533"/>
<path d="M12.7124 3.56789L14.4963 0.478005H18.0642L19.8482 3.56789L18.0642 6.65777H14.4963L12.7124 3.56789Z" fill="#F8F8F8"/>
<path d="M3.47136 35.3787C3.31365 34.4126 3.96898 33.5015 4.93509 33.3438L5.10169 33.3166C5.97579 33.1739 6.80007 33.7668 6.94277 34.6409C7.08547 35.515 6.49254 36.3393 5.61844 36.482L3.70254 36.7948L3.47136 35.3787Z" fill="black"/>
<path d="M65.8345 29.1377L66.5282 27.9361H67.9157L68.6095 29.1377L67.9157 30.3394H66.5282L65.8345 29.1377Z" fill="#FCC01B"/>
<path opacity="0.21" d="M29.1478 48.8041C30.4489 46.8129 34.5691 40.5075 30.1334 36.4248C25.7485 32.3888 19.0441 38.1764 16.3958 37.1562C13.7475 36.136 10.4222 33.2529 10.6127 30.0624C10.8032 26.872 14.3063 24.41 16.9096 27.3108C18.9649 29.6009 18.3592 37.4023 15.2031 38.9814C10.2778 41.4458 6.22481 37.14 4.94826 35.8323" stroke="#807272" stroke-width="0.754533" stroke-dasharray="1.51 1.51"/>
<path opacity="0.21" d="M44.6598 28.6619C50.6186 28.7645 49.7513 21.426 52.4083 20.4287C55.0654 19.4314 59.4661 19.3765 61.4437 21.8874C63.4212 24.3983 62.4392 28.5659 58.5662 28.1278C55.5086 27.782 50.7775 21.5494 52.0869 18.2722C54.1301 13.1578 62.7845 14.7195 64.6074 14.8486" stroke="#807272" stroke-width="0.754533" stroke-dasharray="1.51 1.51"/>
<path d="M19.6501 12.6858V16.4519" stroke="black" stroke-width="1.19917" stroke-linecap="round"/>
<path d="M17.7671 14.5689H21.5332" stroke="black" stroke-width="1.19917" stroke-linecap="round"/>
<path d="M62.564 49.1575V52.9237" stroke="black" stroke-width="1.19917" stroke-linecap="round"/>
<path d="M60.6809 51.0406H64.447" stroke="black" stroke-width="1.19917" stroke-linecap="round"/>
<path d="M4.20596 31.4959C3.85358 31.9139 4.10297 32.656 4.28244 33.0603C4.34865 33.2095 4.53532 33.2414 4.65019 33.1255C4.93733 32.8357 5.39219 32.3111 5.38406 31.9022C5.37312 31.3523 4.70747 30.9009 4.20596 31.4959Z" fill="black"/>
<path d="M1.29885 32.2636C2.14491 31.8838 3.26157 32.74 3.73603 33.1597C3.85827 33.2678 3.83739 33.4559 3.69604 33.5375C3.18619 33.8317 2.07063 34.4026 1.40289 34.1973C0.586043 33.9462 0.195764 32.7589 1.29885 32.2636Z" fill="black"/>
<path d="M22.2136 50.4756V30.6886C22.2136 30.6886 22.667 29.7015 23.1381 29.2095C23.5677 28.7609 24.4323 28.285 24.4323 28.285H51.4266C51.4266 28.285 52.1709 29.1412 52.5359 29.7642C52.8954 30.3777 53.2755 31.4282 53.2755 31.4282V50.4756C53.2755 52.618 51.5387 54.3548 49.3963 54.3548H26.0929C23.9504 54.3548 22.2136 52.618 22.2136 50.4756Z" fill="#FCC01B" stroke="black" stroke-width="0.862054" stroke-linecap="round"/>
<path d="M22.2136 30.3188C22.2136 30.3188 25.3384 36.2223 28.3151 39.1936C31.5608 42.4335 38.1143 45.6649 38.1143 45.6649C38.1143 45.6649 43.3625 42.5348 46.2496 39.9332C49.4845 37.0182 53.4604 31.4282 53.4604 31.4282" stroke="black" stroke-width="0.862054" stroke-linecap="round"/>
<path d="M51.2411 22.4886V34.5713C51.2411 34.5713 48.0854 38.411 45.6943 40.4879C42.9879 42.8387 38.1137 45.6649 38.1137 45.6649C38.1137 45.6649 32.0602 42.4275 29.2389 39.9332C26.9388 37.8997 24.8015 34.5713 24.8015 34.5713V22.4886C24.8015 20.5842 26.3453 19.0404 28.2497 19.0404H47.7929C49.6973 19.0404 51.2411 20.5842 51.2411 22.4886Z" fill="white" stroke="black" stroke-width="0.862054" stroke-linecap="round"/>
<path d="M22.2136 50.8418L27.7604 42.7066" stroke="black" stroke-width="0.862054" stroke-linecap="round"/>
<path d="M53.4602 50.8418L47.9134 42.7066" stroke="black" stroke-width="0.862054" stroke-linecap="round"/>
<path d="M27.2058 47.8836C27.2058 47.8836 28.1848 47.3289 28.8698 47.3289C29.5548 47.3289 30.5339 47.8836 30.5339 47.8836C30.5339 47.8836 31.5129 48.4383 32.1979 48.4383C32.8829 48.4383 33.8619 47.8836 33.8619 47.8836" stroke="black" stroke-width="0.862054" stroke-linecap="round"/>
<path d="M27.2058 49.7325C27.2058 49.7325 28.1848 49.1778 28.8698 49.1778C29.5548 49.1778 30.5339 49.7325 30.5339 49.7325C30.5339 49.7325 31.5129 50.2872 32.1979 50.2872C32.8829 50.2872 33.8619 49.7325 33.8619 49.7325" stroke="black" stroke-width="0.862054" stroke-linecap="round"/>
<path d="M27.9448 31.0584H41.6268" stroke="black" stroke-width="0.862054" stroke-linecap="round"/>
<path d="M27.9448 36.2354H41.6268" stroke="black" stroke-width="0.862054" stroke-linecap="round"/>
<path d="M27.9448 38.8239H41.6268" stroke="black" stroke-width="0.862054" stroke-linecap="round"/>
<path d="M31.2734 41.4124H41.2576" stroke="black" stroke-width="0.862054" stroke-linecap="round"/>
<path d="M27.9448 33.6469H36.265" stroke="black" stroke-width="0.862054" stroke-linecap="round"/>
<path d="M28.8633 26.3632C28.8633 27.4898 29.6942 28.2504 30.9148 28.2504C32.234 28.2504 33.0226 27.4711 33.0226 26.1284V21.3259H31.9711V26.1237C31.9711 26.8983 31.5955 27.3114 30.9054 27.3114C30.3186 27.3114 29.9102 26.9265 29.8961 26.3632H28.8633Z" fill="black"/>
<path d="M37.2148 21.2133C35.2619 21.2133 34.0413 22.5606 34.0413 24.7154C34.0413 26.8702 35.2619 28.2128 37.2148 28.2128C39.1631 28.2128 40.3883 26.8702 40.3883 24.7154C40.3883 22.5606 39.1631 21.2133 37.2148 21.2133ZM37.2148 22.1381C38.5011 22.1381 39.3086 23.1333 39.3086 24.7154C39.3086 26.2927 38.5011 27.288 37.2148 27.288C35.9285 27.288 35.1164 26.2927 35.1164 24.7154C35.1164 23.1333 35.9285 22.1381 37.2148 22.1381Z" fill="black"/>
<path d="M44.1111 28.1001C45.5523 28.1001 46.4208 27.3772 46.4208 26.1848C46.4208 25.2834 45.8011 24.6309 44.881 24.5276V24.49C45.557 24.3774 46.0875 23.7342 46.0875 23.016C46.0875 21.9925 45.2988 21.3259 44.097 21.3259H41.393V28.1001H44.1111ZM42.4445 22.185H43.8435C44.604 22.185 45.0359 22.5324 45.0359 23.1615C45.0359 23.8328 44.5336 24.2084 43.6229 24.2084H42.4445V22.185ZM42.4445 27.241V25.0111H43.8341C44.8294 25.0111 45.3458 25.3867 45.3458 26.119C45.3458 26.8514 44.8435 27.241 43.8952 27.241H42.4445Z" fill="black"/>
<path d="M51.0237 32.7442L52.7391 30.5102L60.4209 36.4089C61.0378 36.8826 61.1539 37.7667 60.6801 38.3836C60.2064 39.0005 59.3223 39.1166 58.7054 38.6429L51.0237 32.7442Z" fill="#FCC01B" stroke="black" stroke-width="0.862054" stroke-linecap="round"/>
<circle cx="49.2078" cy="29.5793" r="5.91655" fill="#FCC01B" stroke="black" stroke-width="0.862054" stroke-linecap="round"/>
<circle cx="49.2076" cy="29.579" r="3.69784" fill="#FEFEFE" stroke="black" stroke-width="0.862054" stroke-linecap="round"/>
<path fill-rule="evenodd" clip-rule="evenodd" d="M49.5785 27.5443C49.5785 29.0414 48.4288 29.9491 46.5208 29.9491H45.5283C45.5162 29.8275 45.51 29.7042 45.51 29.5795C45.51 29.337 45.5333 29.0999 45.5779 28.8705H46.2349C47.4903 28.8705 48.1553 28.3813 48.1553 27.4618C48.1553 26.926 47.9231 26.5423 47.4686 26.3154C47.8619 26.1053 48.2977 25.9643 48.7597 25.9085C49.2737 26.2807 49.5785 26.8545 49.5785 27.5443Z" fill="black"/>
</svg>
