<svg width="189" height="182" viewBox="0 0 189 182" fill="none" xmlns="http://www.w3.org/2000/svg">
<path d="M12.6812 94.0466L56.5521 18.06H144.294L188.165 94.0466L144.294 170.033H56.5521L12.6812 94.0466Z" fill="#F8F8F8"/>
<path d="M100.212 26.3157L96.849 20.4906L100.212 14.6654H106.938L110.302 20.4906L106.938 26.3157H100.212Z" stroke="#FCC01B" stroke-width="2"/>
<path d="M38.2151 147.439L35.9027 143.434L38.2151 139.429H42.8398L45.1521 143.434L42.8398 147.439H38.2151Z" stroke="#FCC01B" stroke-width="2"/>
<path d="M33.6973 9.45723L38.4259 1.26705H47.8831L52.6117 9.45723L47.8831 17.6474H38.4259L33.6973 9.45723Z" fill="#F8F8F8"/>
<path d="M9.20128 93.7763C8.78323 91.2155 10.5203 88.8006 13.0811 88.3826L13.5227 88.3105C15.8397 87.9323 18.0245 89.5039 18.4028 91.8208C18.781 94.1378 17.2094 96.3226 14.8924 96.7009L9.81405 97.5299L9.20128 93.7763Z" fill="black"/>
<path d="M174.504 77.2338L176.343 74.0488H180.021L181.86 77.2338L180.021 80.4189H176.343L174.504 77.2338Z" fill="#FCC01B"/>
<path opacity="0.21" d="M77.2623 129.362C80.7111 124.084 91.6322 107.371 79.8749 96.5493C68.2518 85.8512 50.481 101.192 43.4612 98.4879C36.4415 95.7838 27.6274 88.1416 28.1324 79.6849C28.6374 71.2281 37.9227 64.7021 44.8232 72.3911C50.271 78.4614 48.6656 99.1401 40.2999 103.326C27.2447 109.858 16.5016 98.4449 13.1179 94.9786" stroke="#807272" stroke-width="2" stroke-dasharray="4 4"/>
<path opacity="0.21" d="M118.379 75.9726C134.173 76.2445 131.874 56.7927 138.917 54.1492C145.96 51.5057 157.625 51.3603 162.867 58.0158C168.108 64.6713 165.506 75.718 155.24 74.5569C147.135 73.6403 134.594 57.1199 138.065 48.433C143.481 34.8767 166.421 39.0162 171.253 39.3583" stroke="#807272" stroke-width="2" stroke-dasharray="4 4"/>
<rect x="65.2212" y="53.5908" width="57.6157" height="93.5212" rx="7.94643" fill="white" stroke="black" stroke-width="3.17857" stroke-linecap="round"/>
<path d="M87.7666 62.7759H100.292" stroke="black" stroke-width="3.17857" stroke-linecap="round"/>
<path d="M87.7666 136.257H100.292" stroke="black" stroke-width="3.17857" stroke-linecap="round"/>
<path d="M127.805 73.631L102.797 84.1672V92.8882C102.797 108.283 111.044 122.498 124.408 130.139L127.805 132.082L130.942 130.232C144.03 122.518 152.063 108.458 152.063 93.2661V84.1672L127.805 73.631Z" fill="#FCC01B" stroke="black" stroke-width="3.17857" stroke-linecap="round"/>
<path fill-rule="evenodd" clip-rule="evenodd" d="M104.467 84.9106L127.779 75.0887L133.592 77.6134L109.746 87.9676V94.4097C109.746 108.574 116.727 121.74 128.253 129.706L127.779 129.994L126.078 129.021C112.714 121.38 104.467 107.165 104.467 91.7702V84.9106Z" fill="white"/>
<path d="M119.497 101.251L125.806 107.031L136.197 97.0113" stroke="black" stroke-width="3.17857" stroke-linecap="round"/>
<path d="M52.0859 33.6256V43.6082" stroke="black" stroke-width="3.17857" stroke-linecap="round"/>
<path d="M47.0947 38.6169H57.0773" stroke="black" stroke-width="3.17857" stroke-linecap="round"/>
<path d="M165.835 130.299V140.282" stroke="black" stroke-width="3.17857" stroke-linecap="round"/>
<path d="M160.844 135.291H170.826" stroke="black" stroke-width="3.17857" stroke-linecap="round"/>
<path d="M11.148 83.4844C10.214 84.5926 10.875 86.5595 11.3507 87.6313C11.5262 88.0267 12.021 88.1112 12.3255 87.8039C13.0866 87.0359 14.2923 85.6453 14.2707 84.5614C14.2417 83.104 12.4773 81.9073 11.148 83.4844Z" fill="black"/>
<path d="M3.44262 85.5195C5.68523 84.5126 8.64507 86.7823 9.90271 87.8947C10.2267 88.1813 10.1714 88.6798 9.7967 88.896C8.44527 89.6758 5.48832 91.189 3.71839 90.6449C1.55321 89.9792 0.51872 86.8321 3.44262 85.5195Z" fill="black"/>
</svg>
