<svg width="189" height="182" viewBox="0 0 189 182" fill="none" xmlns="http://www.w3.org/2000/svg">
<path d="M12.6812 94.0466L56.5521 18.06H144.294L188.165 94.0466L144.294 170.033H56.5521L12.6812 94.0466Z" fill="#F8F8F8"/>
<path d="M100.212 26.3158L96.849 20.4906L100.212 14.6655H106.938L110.302 20.4906L106.938 26.3158H100.212Z" stroke="#FCC01B" stroke-width="2"/>
<path d="M38.215 147.439L35.9026 143.434L38.215 139.429H42.8397L45.152 143.434L42.8397 147.439H38.215Z" stroke="#FCC01B" stroke-width="2"/>
<path d="M33.6971 9.4572L38.4257 1.26702H47.8829L52.6115 9.4572L47.8829 17.6474H38.4257L33.6971 9.4572Z" fill="#F8F8F8"/>
<path d="M9.20116 93.7763C8.78311 91.2155 10.5202 88.8006 13.081 88.3826L13.5226 88.3105C15.8395 87.9323 18.0244 89.5039 18.4026 91.8208C18.7809 94.1378 17.2092 96.3226 14.8923 96.7009L9.81393 97.5299L9.20116 93.7763Z" fill="black"/>
<path d="M174.504 77.2338L176.343 74.0488H180.021L181.86 77.2338L180.021 80.4189H176.343L174.504 77.2338Z" fill="#FCC01B"/>
<path opacity="0.21" d="M77.2624 129.362C80.7112 124.084 91.6323 107.371 79.875 96.5493C68.252 85.8512 50.4811 101.192 43.4614 98.4879C36.4416 95.7838 27.6276 88.1416 28.1325 79.6849C28.6375 71.2281 37.9228 64.7021 44.8233 72.3911C50.2711 78.4614 48.6657 99.1401 40.3 103.326C27.2448 109.858 16.5017 98.4449 13.118 94.9786" stroke="#807272" stroke-width="2" stroke-dasharray="4 4"/>
<path opacity="0.21" d="M118.379 75.9726C134.173 76.2445 131.874 56.7927 138.917 54.1492C145.96 51.5057 157.625 51.3603 162.867 58.0158C168.108 64.6713 165.506 75.718 155.24 74.5569C147.135 73.6403 134.594 57.1199 138.065 48.433C143.481 34.8767 166.421 39.0162 171.253 39.3583" stroke="#807272" stroke-width="2" stroke-dasharray="4 4"/>
<path d="M52.0862 33.6256V43.6082" stroke="black" stroke-width="3.17857" stroke-linecap="round"/>
<path d="M47.0948 38.6169H57.0774" stroke="black" stroke-width="3.17857" stroke-linecap="round"/>
<path d="M154.991 89V98.9826" stroke="black" stroke-width="3.17857" stroke-linecap="round"/>
<path d="M150 93.9913H159.983" stroke="black" stroke-width="3.17857" stroke-linecap="round"/>
<path d="M11.1482 83.4844C10.2141 84.5926 10.8752 86.5595 11.3509 87.6313C11.5264 88.0267 12.0212 88.1112 12.3256 87.8039C13.0867 87.0359 14.2924 85.6453 14.2709 84.5614C14.2419 83.104 12.4775 81.9073 11.1482 83.4844Z" fill="black"/>
<path d="M3.44274 85.5194C5.68535 84.5126 8.64519 86.7823 9.90283 87.8947C10.2269 88.1813 10.1715 88.6798 9.79682 88.896C8.44539 89.6758 5.48844 91.189 3.71851 90.6449C1.55333 89.9792 0.518842 86.8321 3.44274 85.5194Z" fill="black"/>
<path d="M113.091 68.2127C106.961 67.0862 101.316 64.8897 98.497 62.9437C96.6548 61.6722 94.5125 61 92.3015 61C90.0905 61 87.9481 61.6722 86.106 62.9436C83.2867 64.8896 77.6418 68.3226 71.5121 69.4491C67.8816 70.1163 65.2466 73.3375 65.2466 77.1083V92.7527C65.2466 97.9209 66.1248 102.445 68.8064 107.883C71.4958 113.336 75.0048 116.843 78.774 120.144C85.1116 125.694 91.3873 128.589 91.6512 128.709L92.6792 129.178L93.7072 128.709C93.9712 128.589 99.869 123.873 106.207 118.323C109.976 115.022 112.99 111.457 115.165 107.727C117.946 102.959 119.356 97.9209 119.356 92.7527V75.872C119.356 72.1011 116.721 68.8799 113.091 68.2127Z" fill="white"/>
<path d="M117.42 70.3771C111.29 69.2506 105.645 67.0541 102.826 65.1081C100.984 63.8365 98.8413 63.1644 96.6302 63.1644C94.4192 63.1644 92.2768 63.8365 90.4348 65.1079C87.6155 67.0539 81.9705 70.487 75.8408 71.6135C72.2104 72.2807 69.5753 75.5019 69.5753 79.2727V94.9171C69.5753 100.085 70.4536 104.61 73.1352 110.047C75.8245 115.5 79.3335 119.008 83.1027 122.309C89.4403 127.859 95.7161 130.753 95.9799 130.873L97.0079 131.342L98.0359 130.873C98.2999 130.753 104.198 126.037 110.535 120.487C114.304 117.186 117.319 113.621 119.494 109.891C122.275 105.123 123.685 100.085 123.685 94.9171V78.0364C123.685 74.2655 121.05 71.0443 117.42 70.3771Z" fill="#FCC01B"/>
<path d="M120.823 110.769L120.823 110.769C118.3 114.988 114.784 119.053 110.348 122.84C102.873 129.224 95.4638 132.553 95.2067 132.668L95.2064 132.668L94.5783 132.947L93.9508 132.668C93.9506 132.668 93.9504 132.668 93.9502 132.668C93.6823 132.548 86.2779 129.219 78.8083 122.84L77.8342 123.981L78.8083 122.84C74.3729 119.053 70.8569 114.988 68.3336 110.769C65.1136 105.385 63.5 99.7331 63.5 93.956V75.586C63.5 71.8879 66.1493 68.7248 69.8092 68.0689C77.5013 66.6904 84.5079 62.5184 87.9557 60.1978C89.9274 58.8707 92.2158 58.1713 94.5785 58.1713C96.9411 58.1713 99.2294 58.8707 101.201 60.1979L102.039 58.9536L101.201 60.1979C104.649 62.5186 111.656 66.6904 119.348 68.0689C123.008 68.7248 125.657 71.8879 125.657 75.586V93.956C125.657 99.7332 124.043 105.385 120.823 110.769Z" stroke="black" stroke-width="3"/>
<circle cx="121.5" cy="120.5" r="19.5" fill="#FCC01B" stroke="black" stroke-width="3.17857" stroke-linecap="round"/>
<path fill-rule="evenodd" clip-rule="evenodd" d="M117.691 137.411C111.656 134.705 107.452 128.645 107.452 121.603C107.452 112.04 115.204 104.288 124.767 104.288C126.083 104.288 127.365 104.434 128.596 104.712C126.436 103.744 124.041 103.205 121.521 103.205C111.958 103.205 104.205 110.958 104.205 120.521C104.205 128.768 109.971 135.668 117.691 137.411Z" fill="white"/>
<path d="M116 120.385L120.911 125L129 117" stroke="black" stroke-width="3.17857" stroke-linecap="round"/>
<path d="M106 107V107.949C106 107.977 105.977 108 105.949 108H84.0506C84.0227 108 84 107.977 84 107.949V107C84 100.925 88.9249 96 95 96C101.075 96 106 100.925 106 107Z" fill="white" stroke="black" stroke-width="3"/>
<circle cx="95" cy="83" r="7" fill="white" stroke="black" stroke-width="3" stroke-linecap="round"/>
</svg>
